<svg
      width="600"
      height="400"
      xmlns="http://www.w3.org/2000/svg"
      xmlns:xlink="http://www.w3.org/1999/xlink"
    >
      <ellipse
        cx="250"
        cy="380"
        rx="60"
        ry="15"
        stroke="none"
        fill="#D3d3d3"
      />
      <ellipse
        cx="500"
        cy="380"
        rx="60"
        ry="15"
        stroke="none"
        fill="#D3d3d3"
      />
      <circle cx="250" cy="300" r="80" stroke="none" fill="#ffa500" />
      <circle cx="500" cy="300" r="80" stroke="none" fill="#ffd700" />
      <circle cx="240" cy="280" r="30" stroke="none" fill="white" />
      <circle cx="280" cy="280" r="30" stroke="none" fill="white" />
      <circle cx="470" cy="280" r="35" stroke="none" fill="white" />
      <circle cx="510" cy="280" r="35" stroke="none" fill="white" />
      <circle cx="250" cy="280" r="7" stroke="none" fill="black" />
      <circle cx="290" cy="280" r="7" stroke="none" fill="black" />
      <circle cx="260" cy="310" r="10" stroke="none" fill="black" />
      <circle cx="460" cy="280" r="7" stroke="none" fill="black" />
      <circle cx="500" cy="280" r="7" stroke="none" fill="black" />
      <ellipse cx="250" cy="335" rx="15" ry="7" stroke="none" fill="#Dc143c" />
      <ellipse cx="490" cy="335" rx="7" ry="15" stroke="none" fill="#Dc143c" />
      <polyline points="260,225 300,240 290,210" stroke="none" fill="#ffa500" />
      <polyline points="270,225 293,235 288,215" stroke="none" fill="black" />
      <polyline points="225,235 190,220 185,280" stroke="none" fill="#ffa500" />
      <polyline points="215,235 194,225 192,250" stroke="none" fill="black" />
      <ellipse
        cx="100"
        cy="100"
        rx="50"
        ry="22"
        stroke="none"
        fill="#ffa500"
        transform=" translate (45, 190) skewY(10)"
      />
      <polyline points="125,290 99,295 115,315" stroke="none" fill="white" />
    </svg>